<svg xmlns="http://www.w3.org/2000/svg" viewBox="0 0 446.9 116.0"><g transform="translate(-18.111 -20.994) scale(1.5205)" fill="none" stroke="#14110d" stroke-width="2.2" stroke-linecap="round" stroke-linejoin="round"><g transform="translate(-1.5 -3.8)"><path d="M60 56.2 V46.6 c0 -5.44 8.64 -5.44 8.64 0"/><g transform="rotate(-6 60 56.2)"><path d="M60 56.2 L18.4 81.8 L101.6 81.8 Z"/></g></g></g><g transform="translate(142.569 -37.936) scale(0.07183)"><path d="M757.80859375 1285.101318359375Q757.80859375 1321.60400390625 737.007080078125 1344.405517578125Q716.20556640625 1367.20703125 681.902587890625 1367.20703125Q646.599609375 1367.20703125 624.998046875 1344.1553955078125Q603.396484375 1321.103759765625 603.396484375 1279.00048828125V1226.59716796875Q603.396484375 1161.697509765625 560.298095703125 1122.298095703125Q517.19970703125 1082.898681640625 441.502685546875 1082.898681640625Q363.8056640625 1082.898681640625 305.9578857421875 1131.0477294921875Q248.110107421875 1179.19677734375 216.411376953125 1264.9454345703125Q184.712646484375 1350.694091796875 184.712646484375 1464.19287109375Q184.712646484375 1598.492431640625 225.5621337890625 1691.0421142578125Q266.41162109375 1783.591796875 336.410888671875 1831.0416259765625Q406.41015625 1878.491455078125 493.509521484375 1878.491455078125Q586.709228515625 1878.491455078125 655.108642578125 1830.5426025390625Q723.508056640625 1782.59375 752.107177734375 1683.595703125Q753.107177734375 1680.695556640625 754.5572509765625 1679.3955078125Q756.00732421875 1678.095458984375 757.607421875 1678.3955078125Q759.907470703125 1678.695556640625 760.70751953125 1680.6456298828125Q761.507568359375 1682.595703125 760.507568359375 1685.495849609375Q739.307861328125 1778.697021484375 691.3572998046875 1843.0479736328125Q643.40673828125 1907.39892578125 574.50537109375 1940.6495361328125Q505.60400390625 1973.900146484375 419.701904296875 1973.900146484375Q314.20068359375 1973.900146484375 229.39990234375 1923.7001953125Q144.59912109375 1873.500244140625 94.8487548828125 1776.0501708984375Q45.098388671875 1678.60009765625 45.098388671875 1536.7998046875Q45.098388671875 1407.19873046875 96.9490966796875 1301.79833984375Q148.7998046875 1196.39794921875 241.5509033203125 1133.597900390625Q334.302001953125 1070.7978515625 456.4033203125 1070.7978515625Q551.60546875 1070.7978515625 618.6566162109375 1099.3482666015625Q685.707763671875 1127.898681640625 721.7581787109375 1176.5494384765625Q757.80859375 1225.2001953125 757.80859375 1285.101318359375Z M1059.41162109375 1087.79736328125V1907.39892578125Q1059.41162109375 1918.499267578125 1065.2615966796875 1925.199462890625Q1071.111572265625 1931.899658203125 1083.41162109375 1934.19970703125L1150.8095703125 1943.899658203125Q1156.40966796875 1944.19970703125 1158.209716796875 1945.999755859375Q1160.009765625 1947.7998046875 1160.009765625 1950.7998046875Q1160.009765625 1952.699951171875 1158.209716796875 1954.3499755859375Q1156.40966796875 1956.0 1152.8095703125 1956.0H815.39892578125Q813.498779296875 1956.0 811.5487060546875 1954.3499755859375Q809.5986328125 1952.699951171875 809.5986328125 1950.7998046875Q809.5986328125 1949.19970703125 811.398681640625 1947.7496337890625Q813.19873046875 1946.299560546875 817.39892578125 1945.299560546875L888.99658203125 1934.19970703125Q901.5966796875 1931.899658203125 907.296630859375 1925.199462890625Q912.99658203125 1918.499267578125 912.99658203125 1908.798828125V1164.60107421875Q912.99658203125 1160.100830078125 910.7464599609375 1157.1507568359375Q908.496337890625 1154.20068359375 902.296142578125 1154.20068359375H817.79931640625Q814.9990234375 1154.20068359375 813.198974609375 1152.400634765625Q811.39892578125 1150.6005859375 811.39892578125 1148.700439453125Q811.39892578125 1145.400390625 813.3489990234375 1144.100341796875Q815.299072265625 1142.80029296875 818.59912109375 1141.80029296875L1035.910400390625 1080.897216796875Q1043.0107421875 1078.59716796875 1045.7608642578125 1078.297119140625Q1048.510986328125 1077.9970703125 1051.01123046875 1077.9970703125Q1055.21142578125 1077.9970703125 1057.3115234375 1080.9471435546875Q1059.41162109375 1083.897216796875 1059.41162109375 1087.79736328125ZM980.80419921875 899.905517578125Q938.80078125 899.905517578125 912.5986328125 870.2535400390625Q886.396484375 840.6015625 886.396484375 797.898681640625Q886.396484375 754.495849609375 913.298583984375 724.8438720703125Q940.20068359375 695.19189453125 980.80419921875 695.19189453125Q1023.107666015625 695.19189453125 1050.10986328125 725.19384765625Q1077.112060546875 755.19580078125 1077.112060546875 797.898681640625Q1077.112060546875 840.6015625 1049.7598876953125 870.2535400390625Q1022.40771484375 899.905517578125 980.80419921875 899.905517578125Z M1452.412109375 1087.79736328125V1907.39892578125Q1452.412109375 1918.499267578125 1458.2620849609375 1925.199462890625Q1464.112060546875 1931.899658203125 1476.412109375 1934.19970703125L1543.81005859375 1943.899658203125Q1553.01025390625 1944.7998046875 1553.01025390625 1950.7998046875Q1553.01025390625 1956.0 1545.81005859375 1956.0H1208.3994140625Q1206.499267578125 1956.0 1204.5491943359375 1954.3499755859375Q1202.59912109375 1952.699951171875 1202.59912109375 1950.7998046875Q1202.59912109375 1949.19970703125 1204.399169921875 1947.7496337890625Q1206.19921875 1946.299560546875 1210.3994140625 1945.299560546875L1281.9970703125 1934.19970703125Q1294.59716796875 1931.899658203125 1300.297119140625 1925.199462890625Q1305.9970703125 1918.499267578125 1305.9970703125 1908.798828125V1164.60107421875Q1305.9970703125 1160.100830078125 1303.7469482421875 1157.1507568359375Q1301.496826171875 1154.20068359375 1295.296630859375 1154.20068359375H1210.7998046875Q1207.99951171875 1154.20068359375 1206.199462890625 1152.400634765625Q1204.3994140625 1150.6005859375 1204.3994140625 1148.700439453125Q1204.3994140625 1145.400390625 1206.3494873046875 1144.100341796875Q1208.299560546875 1142.80029296875 1211.599609375 1141.80029296875L1428.910888671875 1080.897216796875Q1436.01123046875 1078.59716796875 1438.7613525390625 1078.297119140625Q1441.511474609375 1077.9970703125 1444.01171875 1077.9970703125Q1448.2119140625 1077.9970703125 1450.31201171875 1080.9471435546875Q1452.412109375 1083.897216796875 1452.412109375 1087.79736328125ZM1440.61083984375 1263.700927734375 1433.6103515625 1256.400390625 1466.61083984375 1226.300048828125Q1560.41162109375 1140.599609375 1625.212890625 1106.398681640625Q1690.01416015625 1072.19775390625 1752.21435546875 1072.19775390625Q1845.4140625 1072.19775390625 1897.3638916015625 1134.596923828125Q1949.313720703125 1196.99609375 1967.61328125 1325.39501953125L2047.512451171875 1897.599609375Q2049.512451171875 1913.599609375 2057.51220703125 1924.1495361328125Q2065.511962890625 1934.699462890625 2082.711669921875 1936.99951171875L2138.910400390625 1945.299560546875Q2143.110595703125 1945.599609375 2144.91064453125 1947.0496826171875Q2146.710693359375 1948.499755859375 2146.710693359375 1950.7998046875Q2146.710693359375 1952.699951171875 2144.91064453125 1954.3499755859375Q2143.110595703125 1956.0 2139.510498046875 1956.0H1796.599609375Q1787.99951171875 1956.0 1787.99951171875 1950.7998046875Q1787.99951171875 1946.19970703125 1798.599609375 1943.899658203125L1868.79736328125 1934.19970703125Q1886.9970703125 1931.899658203125 1893.697021484375 1921.3497314453125Q1900.39697265625 1910.7998046875 1898.39697265625 1897.599609375L1822.99853515625 1339.5966796875Q1807.79931640625 1234.6005859375 1771.1507568359375 1186.202392578125Q1734.502197265625 1137.80419921875 1664.20458984375 1137.80419921875Q1618.2060546875 1137.80419921875 1572.6575927734375 1161.1534423828125Q1527.109130859375 1184.502685546875 1473.01123046875 1234.20068359375Z M2238.796875 1120.3984375 2142.3984375 1104.59814453125Q2138.1982421875 1103.298095703125 2136.398193359375 1101.8480224609375Q2134.59814453125 1100.39794921875 2134.59814453125 1097.39794921875Q2134.59814453125 1095.097900390625 2136.398193359375 1093.6478271484375Q2138.1982421875 1092.19775390625 2139.79833984375 1092.19775390625H2233.79736328125Q2243.096923828125 1092.19775390625 2247.996826171875 1089.4478759765625Q2252.896728515625 1086.697998046875 2255.39697265625 1080.59814453125L2373.80908203125 902.59619140625Q2377.609375 898.696044921875 2380.6597900390625 896.4459228515625Q2383.710205078125 894.19580078125 2387.6103515625 894.19580078125Q2391.41064453125 894.19580078125 2393.61083984375 896.5460205078125Q2395.81103515625 898.896240234375 2395.81103515625 903.5966796875V1769.5927734375Q2395.81103515625 1844.59375 2425.3612060546875 1881.09423828125Q2454.911376953125 1917.5947265625 2506.8115234375 1917.5947265625Q2526.911376953125 1917.5947265625 2544.811279296875 1912.294677734375Q2562.711181640625 1906.99462890625 2578.111083984375 1895.79443359375Q2593.510986328125 1884.59423828125 2605.5609130859375 1867.2437744140625Q2617.61083984375 1849.893310546875 2626.0107421875 1825.79248046875Q2628.0107421875 1821.292236328125 2631.2109375 1821.9921875Q2634.4111328125 1822.692138671875 2632.4111328125 1828.59228515625Q2616.01123046875 1877.794921875 2591.2606201171875 1909.5966796875Q2566.510009765625 1941.3984375 2531.7584228515625 1956.599365234375Q2497.0068359375 1971.80029296875 2450.60400390625 1971.80029296875Q2358.60009765625 1971.80029296875 2306.098388671875 1926.898681640625Q2253.5966796875 1881.9970703125 2253.5966796875 1788.99365234375V1139.79833984375Q2253.5966796875 1131.498291015625 2250.5467529296875 1126.4483642578125Q2247.496826171875 1121.3984375 2238.796875 1120.3984375ZM2345.00732421875 1108.3984375 2348.60791015625 1092.19775390625H2624.21142578125Q2629.21142578125 1092.19775390625 2631.011474609375 1093.69775390625Q2632.8115234375 1095.19775390625 2632.8115234375 1098.7978515625Q2632.8115234375 1102.998046875 2627.611328125 1105.6982421875Q2622.4111328125 1108.3984375 2612.61083984375 1108.3984375Z M2908.01171875 1487.39501953125Q2908.01171875 1350.095947265625 2945.0618896484375 1257.8465576171875Q2982.112060546875 1165.59716796875 3039.912353515625 1118.8974609375Q3097.712646484375 1072.19775390625 3159.81298828125 1072.19775390625Q3228.513916015625 1072.19775390625 3266.2642822265625 1112.898681640625Q3304.0146484375 1153.599609375 3304.0146484375 1221.6025390625Q3304.0146484375 1270.806640625 3281.3626708984375 1295.508544921875Q3258.710693359375 1320.21044921875 3225.107666015625 1320.21044921875Q3193.304931640625 1320.21044921875 3175.6539306640625 1301.6590576171875Q3158.0029296875 1283.107666015625 3156.802734375 1244.4052734375L3156.20263671875 1217.6044921875Q3155.902587890625 1180.20556640625 3140.903076171875 1162.705810546875Q3125.903564453125 1145.2060546875 3090.20458984375 1145.2060546875Q3048.80615234375 1145.2060546875 3009.10791015625 1184.104736328125Q2969.40966796875 1223.00341796875 2943.2109375 1299.9510498046875Q2917.01220703125 1376.898681640625 2917.01220703125 1490.3955078125ZM2917.01220703125 1091.39794921875V1441.39501953125V1904.3984375Q2917.01220703125 1914.5986328125 2923.312255859375 1921.7489013671875Q2929.6123046875 1928.899169921875 2941.6123046875 1931.19921875L3041.01220703125 1944.19970703125Q3046.312255859375 1945.19970703125 3047.9622802734375 1946.499755859375Q3049.6123046875 1947.7998046875 3049.6123046875 1950.7998046875Q3049.6123046875 1952.699951171875 3047.6622314453125 1954.3499755859375Q3045.712158203125 1956.0 3041.81201171875 1956.0H2675.699462890625Q2672.499267578125 1956.0 2669.8492431640625 1953.8499755859375Q2667.19921875 1951.699951171875 2667.19921875 1950.099853515625Q2667.19921875 1947.7998046875 2670.1492919921875 1945.8497314453125Q2673.099365234375 1943.899658203125 2679.099365234375 1942.899658203125L2746.59716796875 1934.19970703125Q2759.197265625 1931.899658203125 2764.897216796875 1925.49951171875Q2770.59716796875 1919.099365234375 2770.59716796875 1910.59912109375V1162.80078125Q2770.59716796875 1158.00048828125 2768.4970703125 1154.600341796875Q2766.39697265625 1151.2001953125 2760.19677734375 1151.2001953125H2674.19970703125Q2672.299560546875 1151.2001953125 2670.3494873046875 1149.400146484375Q2668.3994140625 1147.60009765625 2668.3994140625 1146.0Q2668.3994140625 1143.0 2670.3494873046875 1141.39990234375Q2672.299560546875 1139.7998046875 2676.19970703125 1138.7998046875L2893.81103515625 1083.59765625Q2900.01123046875 1081.59765625 2903.0614013671875 1081.297607421875Q2906.111572265625 1080.99755859375 2908.61181640625 1080.99755859375Q2913.112060546875 1080.99755859375 2915.0621337890625 1084.2476806640625Q2917.01220703125 1087.497802734375 2917.01220703125 1091.39794921875Z M4069.310791015625 1423.6025390625Q4069.310791015625 1430.802734375 4064.5606689453125 1435.0029296875Q4059.810546875 1439.203125 4051.110107421875 1439.203125H3436.309326171875V1426.40234375H3906.095947265625Q3921.296142578125 1426.40234375 3921.296142578125 1410.001953125Q3921.296142578125 1249.59912109375 3865.5474853515625 1166.298828125Q3809.798828125 1082.99853515625 3721.102294921875 1082.99853515625Q3643.005859375 1082.99853515625 3588.508056640625 1128.997314453125Q3534.01025390625 1174.99609375 3505.1612548828125 1261.094970703125Q3476.312255859375 1347.19384765625 3476.312255859375 1467.39404296875Q3476.312255859375 1672.994140625 3565.2618408203125 1782.193115234375Q3654.21142578125 1891.39208984375 3795.01123046875 1891.39208984375Q3892.712158203125 1891.39208984375 3965.011962890625 1832.7423095703125Q4037.311767578125 1774.092529296875 4052.710693359375 1672.693115234375Q4053.41064453125 1669.093017578125 4054.8607177734375 1667.593017578125Q4056.310791015625 1666.093017578125 4057.310791015625 1666.093017578125Q4059.61083984375 1666.093017578125 4061.410888671875 1667.7430419921875Q4063.2109375 1669.39306640625 4062.510986328125 1674.693115234375Q4052.711669921875 1761.39501953125 4005.7109375 1829.49658203125Q3958.710205078125 1897.59814453125 3884.908447265625 1936.799072265625Q3811.106689453125 1976.0 3720.404296875 1976.0Q3606.102783203125 1976.0 3520.701416015625 1923.599609375Q3435.300048828125 1871.19921875 3387.899169921875 1774.1488037109375Q3340.498291015625 1677.098388671875 3340.498291015625 1545.1982421875Q3340.498291015625 1409.197265625 3390.0489501953125 1302.0472412109375Q3439.599609375 1194.897216796875 3529.200927734375 1132.8475341796875Q3618.80224609375 1070.7978515625 3738.504150390625 1070.7978515625Q3838.706298828125 1070.7978515625 3912.8577880859375 1116.3485107421875Q3987.00927734375 1161.899169921875 4028.1600341796875 1241.500244140625Q4069.310791015625 1321.101318359375 4069.310791015625 1423.6025390625Z" fill="#14110d"/></g></svg>
